<?xml version='1.0' encoding='utf-8'?>
<svg xmlns="http://www.w3.org/2000/svg" width="703" height="235" viewBox="0 0 703 235" fill="none">
<path d="M55.1656 97.8083C70.8871 103.869 84.5812 104.608 102.921 100.106C121.249 95.6148 140.655 87.6607 150.607 80.7456C160.559 73.8305 166.85 65.0913 150.885 56.8255C134.92 48.5597 100.395 49.2639 92.4014 50.9725C84.4074 52.681 89.5513 58.3147 95.9002 59.7578C106.698 62.2168 105.087 74.8695 94.0465 77.1784C83.0055 79.4873 74.1658 81.115 63.1248 72.4913C57.2162 67.8851 60.1821 59.6308 70.7249 50.1528C81.2677 40.6748 88.2885 38.6545 95.5295 37.858C109.131 36.3572 134.897 47.0589 143.47 45.7082C158.462 43.33 161.057 36.6689 160.999 26.3943C160.976 23.0464 161.323 17.0895 147.792 9.95502C134.816 3.10916 128.525 -1.1392 116.464 0.269224C115.41 0.396212 114.379 0.67328 113.406 1.08888C109.177 2.90136 98.0899 8.22335 109.27 9.97811C122.825 12.1138 123.844 20.6798 113.533 19.7909C102.909 18.8789 66.2993 28.7032 56.44 32.6745C46.4186 36.7151 21.5098 55.3709 29.5848 74.881C32.991 83.1122 39.4557 91.7359 55.1772 97.8083H55.1656Z" fill="#481100" data-part-id="lettering-002-brown" id="lettering-002-brown" />
</svg>