<?xml version='1.0' encoding='utf-8'?>
<svg xmlns="http://www.w3.org/2000/svg" width="1480" height="1285" viewBox="0 0 1480 1285" fill="none">
<g clip-path="url(#clip0_2142_4914)">
<path d="M702.586 659.045C691.714 634.69 684.856 609.992 683.267 589.483C682.4 578.181 683.142 568.322 685.485 560.215C689.805 545.27 698.71 538.583 705.429 535.596C712.149 532.609 723.083 530.504 737.122 537.304C744.751 541.004 752.581 547.039 760.42 555.25C774.641 570.15 788.469 591.772 799.34 616.127C810.211 640.482 817.069 665.18 818.659 685.689C819.526 696.991 818.784 706.85 816.441 714.957C812.121 729.902 803.216 736.589 796.496 739.576C789.777 742.563 778.843 744.668 764.804 737.868C757.175 734.168 749.345 728.133 741.505 719.922C727.284 705.022 713.457 683.4 702.586 659.045ZM723.783 576.673C723.494 580.527 723.589 586.155 724.739 593.83C726.93 608.403 732.277 625.699 739.784 642.526C747.291 659.352 756.609 674.891 766.011 686.266C770.968 692.259 775.091 696.094 778.166 698.471C778.455 694.617 778.36 688.99 777.209 681.314C775.019 666.742 769.671 649.445 762.164 632.619C754.642 615.789 745.339 600.254 735.937 588.879C730.996 582.89 726.858 579.051 723.798 576.677L723.783 576.673Z" fill="#50E6FF" data-part-id="ring-014-cyan" id="ring-014-cyan" />
</g>
<defs>
<clipPath id="clip0_2142_4914">
<rect width="877.995" height="904.691" fill="white" transform="translate(1281.19 319.323) rotate(103.303)" />
</clipPath>
</defs>
</svg>