<?xml version='1.0' encoding='utf-8'?>
<svg xmlns="http://www.w3.org/2000/svg" width="1480" height="1285" viewBox="0 0 1480 1285" fill="none">
<g clip-path="url(#clip0_2142_4914)">
<path d="M572.081 716.927C595.721 769.877 610.598 823.092 613.98 866.791C615.686 888.816 614.37 907.478 610.105 922.257C605.076 939.649 596.091 951.317 583.405 956.947C570.72 962.576 556.003 961.417 539.675 953.487C525.799 946.758 511.024 935.24 495.737 919.238C465.428 887.492 435.709 840.851 412.07 787.901C388.43 734.951 373.553 681.735 370.171 638.037C368.465 616.012 369.781 597.35 374.046 582.571C379.075 565.179 388.06 553.51 400.746 547.881C413.431 542.251 428.148 543.411 444.476 551.341C458.352 558.07 473.127 569.587 488.414 585.59C518.723 617.335 548.442 663.977 572.081 716.927ZM433.777 778.276C456.333 828.813 484.454 873.066 512.935 902.909C537.858 929.018 560.588 941.125 573.73 935.293C586.873 929.461 593.063 904.532 590.288 868.592C587.12 827.526 572.945 777.092 550.374 726.552C527.818 676.015 499.697 631.761 471.216 601.919C446.293 575.81 423.563 563.703 410.421 569.534C397.278 575.366 391.088 600.296 393.863 636.235C397.031 677.301 411.206 727.736 433.777 778.276Z" fill="#FF3364" data-part-id="ring-018-red" id="ring-018-red" />
</g>
<defs>
<clipPath id="clip0_2142_4914">
<rect width="877.995" height="904.691" fill="white" transform="translate(1281.19 319.323) rotate(103.303)" />
</clipPath>
</defs>
</svg>