<?xml version='1.0' encoding='utf-8'?>
<svg xmlns="http://www.w3.org/2000/svg" width="1156" height="904" viewBox="0 0 1156 904" fill="none">
<path d="M682.292 721.008C620.921 720.537 563.693 688.792 521.133 631.628C479.373 575.507 456.684 501.328 457.288 422.762C457.891 344.197 481.697 270.375 524.314 214.901C567.727 158.398 625.436 127.536 686.826 128.007C748.216 128.479 805.426 160.223 847.985 217.387C889.746 273.508 912.434 347.687 911.831 426.253C911.228 504.818 887.422 578.64 844.805 634.114C801.391 690.617 743.682 721.479 682.292 721.008ZM686.637 152.732C633.223 152.322 582.556 179.747 543.977 229.957C504.602 281.197 482.625 349.739 482.063 422.972C480.912 572.833 570.811 695.445 682.463 696.303C735.876 696.713 786.543 669.288 825.122 619.077C864.497 567.837 886.474 499.296 887.037 426.062C888.187 276.201 798.288 153.589 686.637 152.732Z" fill="#50E6FF" data-part-id="ring-003-cyan" id="ring-003-cyan" />
</svg>